<svg id="Layer_1" data-name="Layer 1" xmlns="http://www.w3.org/2000/svg" viewBox="0 0 90.42 96.35"><defs><style>.cls-1{fill:#c46291;}.cls-2{fill:#14a9e1;}.cls-3{fill:#ed1c24;}</style></defs><title>compileAllScss</title><path class="cls-1" d="M29.68,28.31a20.33,20.33,0,0,0-9.85,2.74c-1.42.83-3.31,2-4,3.51-1,2.14.56,4,2.48,4.77,3.22,1.33,6.76,1.06,10.06,2.05a5.46,5.46,0,0,1,3,2,2.24,2.24,0,0,1,.1,2.68A8.45,8.45,0,0,1,28,48.78a17.57,17.57,0,0,1-5.29,1.68A2.53,2.53,0,0,0,21,53.54a2.56,2.56,0,0,0,3.08,1.74c5.65-.94,15-5.47,12.44-12.72-1.14-3.29-4.11-5.31-7.37-6.15A43.24,43.24,0,0,0,24,35.6c-1.13-.15-3.53-.38-4.1-1.11l.65,1.11v.59l-.64,1.1a10.88,10.88,0,0,1,4.33-2.86,15.25,15.25,0,0,1,5.49-1.12c3.22-.06,3.23-5.06,0-5Z" transform="translate(-15.5 -15.82)"/><path class="cls-1" d="M52.88,31.46c-4-.57-8.39,0-11.73,2.41A6,6,0,0,0,38.32,39,5.7,5.7,0,0,0,42,43.79c3.45,1.39,7.84.13,10.82-1.87a15.34,15.34,0,0,0,6.29-8.51A2.56,2.56,0,0,0,58,30.58a2.62,2.62,0,0,0-3,.39c-3.36,2.68-1.66,8.24.31,11.22a14.65,14.65,0,0,0,9.64,6.47A2.58,2.58,0,0,0,68,46.91a2.52,2.52,0,0,0-1.75-3.07,9.91,9.91,0,0,1-6.33-3.71,9.42,9.42,0,0,1-1.59-3.2c-.25-.9-.48-1.9.18-2.42L54.3,32.08a10.1,10.1,0,0,1-8.62,7.24c-.38,0-2.44.13-2.39-.64,0-.36.87-.83,1.15-1a11.3,11.3,0,0,1,7.11-1.4,2.59,2.59,0,0,0,3.08-1.75,2.51,2.51,0,0,0-1.75-3.07Z" transform="translate(-15.5 -15.82)"/><path class="cls-1" d="M77.05,21a19.35,19.35,0,0,0-10.76.85c-1.89.76-3.56,2.23-3.52,4.44,0,1.79,1.3,3.45,2.52,4.66a15.55,15.55,0,0,0,8.2,4c1.61.29,3.23.29,4.85.48-.12,0-.34-.07.19,0l.55.13a1.26,1.26,0,0,1,.64.27c-.4-.24.45.46.16.1a2,2,0,0,1,.25.41c-.17-.35,0,.23,0,0,0-.07,0-.51,0-.19s0,.15.06-.09l-.11.18.13-.18-.14.14c.2-.15.23-.17.08-.07l-.28.16c-.1.06-.42.14,0,0l-.55.16-.45.1c-.4.08.58,0-.12,0a28.37,28.37,0,0,1-6-.11,2.58,2.58,0,0,0-3.08,1.74,2.52,2.52,0,0,0,1.75,3.08,34.09,34.09,0,0,0,6.06.37,11.83,11.83,0,0,0,4.7-1,5,5,0,0,0,2.9-4.23A5.5,5.5,0,0,0,83,32.09a9.25,9.25,0,0,0-5.48-1.71c-.73-.05-1.45-.08-2.17-.16.43.05-.53-.09-.61-.1-.38-.07-.76-.16-1.13-.25a10.23,10.23,0,0,1-3.49-1.45,5.13,5.13,0,0,1-1.25-1,10.68,10.68,0,0,1-1-1.26c-.16-.19,0-.42-.08,0a2.77,2.77,0,0,1-.19.62c.15-.3.2-.15,0,0,0,0,.69-.37.26-.17a12.06,12.06,0,0,1,2.64-.75,14.88,14.88,0,0,1,5.24,0,2.57,2.57,0,0,0,3.07-1.75A2.51,2.51,0,0,0,77.05,21Z" transform="translate(-15.5 -15.82)"/><path class="cls-1" d="M98.91,16.25a16.44,16.44,0,0,0-5-.37A11,11,0,0,0,89,17.19a4.4,4.4,0,0,0-2.11,4.75,6.41,6.41,0,0,0,3.4,3.87,18.81,18.81,0,0,0,4.39,1.56c.65.16,1.31.31,2,.49a18.84,18.84,0,0,1,1.85.59,6.36,6.36,0,0,1,1.44.88,3.24,3.24,0,0,1,.85,1.14c-.09-.22,0,.16,0,.17s.09.31.11.47c-.07-.52-.07.47,0,.22s-.3.65-.06.19c-.07.13-.14.26-.22.38.19-.29,0,0-.11.1s-.4.36-.18.18-.32.2-.31.19-.87.41-.47.26a6.83,6.83,0,0,1-.91.27l-.46.1c.45-.08-.11,0-.29,0-1.92.14-3.84-.14-5.76.06a2.57,2.57,0,0,0-2.5,2.5,2.51,2.51,0,0,0,2.5,2.5c3.25-.33,6.46.4,9.57-1a6.56,6.56,0,0,0,4-7.32c-.65-3.25-3.46-5.29-6.41-6.33C98,23,96.59,22.71,95.2,22.33a12.65,12.65,0,0,1-1.92-.62,9.13,9.13,0,0,1-1.3-.78s-.36-.31-.14-.1c-.17-.16,0-.29-.08-.1s0,.24,0,.36-.22.31-.25.43,0,0,.12-.08c.39-.35-.1,0,.15-.09A7.9,7.9,0,0,1,93,21a11.68,11.68,0,0,1,4.6,0,2.55,2.55,0,0,0,3.07-1.75,2.52,2.52,0,0,0-1.74-3.07Z" transform="translate(-15.5 -15.82)"/><path class="cls-2" d="M51.38,94.73a13.08,13.08,0,0,0-8.12.77,8.07,8.07,0,0,0-4.71,5.76c-.62,2.62-.84,5.53.9,7.78s4.42,2.94,7,3.08a12.43,12.43,0,0,0,7.73-2.24,2.56,2.56,0,0,0,.9-3.42,2.53,2.53,0,0,0-3.42-.9c-.34.24-.69.47-1.06.68l-.61.3s-.35.14,0,0-.1,0-.15.05a10.42,10.42,0,0,1-1.21.35l-.67.13.19,0a1.6,1.6,0,0,1-.49,0,8.69,8.69,0,0,1-1.25,0c-.1,0-.52,0-.58,0s.49.09.19,0l-.48-.09c-.41-.09-.79-.23-1.19-.36s.17.06.16.07-.23-.11-.25-.12c-.22-.11-.43-.25-.64-.38s.15.1.14.1-.25-.24-.27-.25c-.31-.3.15.31-.06-.08a2.8,2.8,0,0,0-.14-.25c-.19-.28.1.4,0,.07,0,0-.18-.64-.17-.64s0,.64,0,.1a2.83,2.83,0,0,1,0-.29c0-.2,0-.39,0-.59a2,2,0,0,1,0-.69s-.08.48,0,.18.06-.32.09-.48c.08-.42.17-.85.29-1.26,0-.19.13-.38.18-.57s-.07.13-.07.14a1.81,1.81,0,0,1,.22-.44c.05-.09.38-.54.19-.31s.25-.24.32-.31c.32-.32-.3.17.09-.08.21-.14.43-.28.65-.4l.26-.13.18-.08c.16-.08.11-.06-.16.06a2.08,2.08,0,0,1,.7-.24,7.46,7.46,0,0,1,1.54-.35c-.58,0,.24,0,.39,0s.56,0,.85,0l.31,0h.19c-.33,0,.11,0,.19,0l.52.1a2.5,2.5,0,1,0,1.33-4.82Z" transform="translate(-15.5 -15.82)"/><path class="cls-2" d="M70.65,90.25c-3.72-.66-7.55-.41-10.58,2.06a6.73,6.73,0,0,0-2.65,4.56c-.11,2.35,1.76,3.67,3.78,4.28a18.57,18.57,0,0,0,5.15.6c.84,0,1.68,0,2.52.08a5.87,5.87,0,0,1,.59,0c.47.05-.3-.07.14,0a4.87,4.87,0,0,1,.52.12c.1,0,.54.21.26.08.41.19.22.14.1,0a2.65,2.65,0,0,1,.33.34c-.29-.38.22.65.06.16,0,.14.16,1,.15.52v.48c0,.6.14-.33,0,.25,0,.15-.3.91-.12.51-.13.28-.3.55-.46.82s-.11.16,0,.06a3.73,3.73,0,0,1-.32.36c-.11.12-.23.23-.34.34s-.6.45-.25.21a10.11,10.11,0,0,1-.94.56c-.36.19.31-.11-.07,0a5.4,5.4,0,0,1-.57.18l-.52.13c-.67.14.2,0-.48.06a11.45,11.45,0,0,1-1.31,0,10.27,10.27,0,0,1-2.34-.54,13,13,0,0,1-2.36-1.09,2.5,2.5,0,0,0-2.52,4.32c3.2,1.79,7,2.91,10.63,2a9.46,9.46,0,0,0,6.77-6.41c1-3.59-.91-7.55-4.7-8.35a31,31,0,0,0-5.45-.37c-.39,0-.78,0-1.17,0l-.59-.05c-.47-.06.27.05-.19,0a10.34,10.34,0,0,1-1.13-.27c-.05,0-.61-.21-.36-.11L62,96.15c-.27-.18-.26-.15,0,.1l.21.22a1.78,1.78,0,0,1,.16.6c.1.09-.08.2.11-.07s.17-.28.27-.42c-.25.33.25-.24.26-.24a5.45,5.45,0,0,1,1.49-1,8,8,0,0,1,2.09-.45,12.22,12.22,0,0,1,2.69.17,2.57,2.57,0,0,0,3.07-1.74,2.53,2.53,0,0,0-1.74-3.08Z" transform="translate(-15.5 -15.82)"/><path class="cls-2" d="M91.22,86.91c-3.65-.79-7.45-1.4-10.91.4-3.06,1.59-5.86,6.17-3,9.24,1.25,1.34,3.32,2,5,2.38s3.27.58,4.9.92a9.64,9.64,0,0,1,1.06.26c.11,0,.77.28.53.17.09,0,.83.53.57.33.22.17.17.16.2.33,0,0,0,.3,0,.11a3.1,3.1,0,0,1-.15.52c.11-.26-.09.15-.1.17a5,5,0,0,1-1.27,1.44A6.78,6.78,0,0,1,84,104.67a4.32,4.32,0,0,1-3.38-1.59,2.53,2.53,0,0,0-3.54,0,2.55,2.55,0,0,0,0,3.53,9.62,9.62,0,0,0,9.81,2.67c3.32-.93,7-3.57,7.59-7.16a5.52,5.52,0,0,0-1.73-5.22,9.86,9.86,0,0,0-4.64-2c-1.69-.32-3.39-.53-5-1-.15,0-2-.79-2-.78s.19.28.13.32-.13.6,0-.17l.09-.27c-.07.15-.06.15,0,0a2.73,2.73,0,0,1,1.09-1.16,4.31,4.31,0,0,1,1.89-.71,15.52,15.52,0,0,1,5.63.56A2.56,2.56,0,0,0,93,90a2.53,2.53,0,0,0-1.74-3.08Z" transform="translate(-15.5 -15.82)"/><path class="cls-3" d="M61.16,57.14a104.39,104.39,0,0,0,4.33,22.07c1,3.06,5.78,1.75,4.82-1.33a97.9,97.9,0,0,1-4.15-20.74,2.57,2.57,0,0,0-2.5-2.5,2.51,2.51,0,0,0-2.5,2.5Z" transform="translate(-15.5 -15.82)"/><path class="cls-3" d="M68.26,76.73A33.93,33.93,0,0,1,64,75.25l.6.26a36,36,0,0,1-4-2,2.5,2.5,0,0,0-2.52,4.32,37.57,37.57,0,0,0,8.86,3.75,2.5,2.5,0,0,0,1.33-4.82Z" transform="translate(-15.5 -15.82)"/><path class="cls-3" d="M70.82,79.16l2.55-5.22A2.64,2.64,0,0,0,73.62,72a2.53,2.53,0,0,0-1.15-1.49,2.49,2.49,0,0,0-1.92-.25,2.45,2.45,0,0,0-1.5,1.15L66.5,76.64a2.64,2.64,0,0,0-.25,1.93,2.53,2.53,0,0,0,1.15,1.49,2.5,2.5,0,0,0,1.93.25,2.43,2.43,0,0,0,1.49-1.15Z" transform="translate(-15.5 -15.82)"/></svg>